/* XPM */
static char * closeO_xpm[] = {
"19 38 147 2",
"  	c None",
". 	c #282828",
"+ 	c #272727",
"@ 	c #262626",
"# 	c #43472B",
"$ 	c #DFEE13",
"% 	c #F4FC0A",
"& 	c #F5FD0A",
"* 	c #E2F014",
"= 	c #44482B",
"- 	c #252525",
"; 	c #242424",
"> 	c #889820",
", 	c #E8F708",
"' 	c #EEFA09",
") 	c #F1FB09",
"! 	c #EAF809",
"~ 	c #8B9A21",
"{ 	c #3A3E23",
"] 	c #DFF406",
"^ 	c #E5F606",
"/ 	c #E9F808",
"( 	c #ECF909",
"_ 	c #E6F707",
": 	c #E1F406",
"< 	c #3B3F24",
"[ 	c #232323",
"} 	c #BDD50C",
"| 	c #DBF206",
"1 	c #E0F406",
"2 	c #E3F606",
"3 	c #E6F608",
"4 	c #E7F608",
"5 	c #E4F606",
"6 	c #DDF206",
"7 	c #BFD70C",
"8 	c #222222",
"9 	c #CBEC02",
"0 	c #D0EF02",
"a 	c #D6F102",
"b 	c #D9F202",
"c 	c #DBF302",
"d 	c #DCF302",
"e 	c #DAF302",
"f 	c #D7F102",
"g 	c #D2EF02",
"h 	c #CCEC02",
"i 	c #212121",
"j 	c #C2E702",
"k 	c #C4E802",
"l 	c #C7E902",
"m 	c #CBEB02",
"n 	c #CEED02",
"o 	c #C9EA02",
"p 	c #C5E902",
"q 	c #C1E702",
"r 	c #202020",
"s 	c #98BA04",
"t 	c #B6E202",
"u 	c #B5E102",
"v 	c #B9E302",
"w 	c #B9E402",
"x 	c #B7E202",
"y 	c #B4E102",
"z 	c #98BB04",
"A 	c #2B2F1A",
"B 	c #B0DE02",
"C 	c #A7DB01",
"D 	c #A3DA01",
"E 	c #A4DB01",
"F 	c #A6DB01",
"G 	c #AFDE02",
"H 	c #2E321C",
"I 	c #4F5D0D",
"J 	c #A4DA01",
"K 	c #9AD500",
"L 	c #93D000",
"M 	c #505E0E",
"N 	c #2E311C",
"O 	c #7FA603",
"P 	c #9ED601",
"Q 	c #30331E",
"R 	c #2C2C2C",
"S 	c #292929",
"T 	c #2A2A2A",
"U 	c #2B2B2B",
"V 	c #2E2E2E",
"W 	c #2D2D2D",
"X 	c #343434",
"Y 	c #363636",
"Z 	c #383838",
"` 	c #373737",
" .	c #2F2F2F",
"..	c #353535",
"+.	c #393939",
"@.	c #3A3A3A",
"#.	c #454545",
"$.	c #EAEAEA",
"%.	c #F9F9F9",
"&.	c #FAFAFA",
"*.	c #ECECEC",
"=.	c #464646",
"-.	c #939393",
";.	c #F2F2F2",
">.	c #F6F6F6",
",.	c #F8F8F8",
"'.	c #F7F7F7",
").	c #F3F3F3",
"!.	c #959595",
"~.	c #3C3C3C",
"{.	c #EDEDED",
"].	c #F0F0F0",
"^.	c #F5F5F5",
"/.	c #F4F4F4",
"(.	c #F1F1F1",
"_.	c #EEEEEE",
":.	c #3D3D3D",
"<.	c #CDCDCD",
"[.	c #CFCFCF",
"}.	c #DFDFDF",
"|.	c #E4E4E4",
"1.	c #E7E7E7",
"2.	c #E9E9E9",
"3.	c #EBEBEB",
"4.	c #E8E8E8",
"5.	c #E5E5E5",
"6.	c #E1E1E1",
"7.	c #D9D9D9",
"8.	c #DBDBDB",
"9.	c #DEDEDE",
"0.	c #E0E0E0",
"a.	c #DCDCDC",
"b.	c #AEAEAE",
"c.	c #D3D3D3",
"d.	c #D1D1D1",
"e.	c #D2D2D2",
"f.	c #CCCCCC",
"g.	c #C6C6C6",
"h.	c #C5C5C5",
"i.	c #303030",
"j.	c #585858",
"k.	c #BEBEBE",
"l.	c #B9B9B9",
"m.	c #595959",
"n.	c #979797",
"o.	c #C0C0C0",
"p.	c #323232",
". . . . . . . . . . . . . . . . . . . ",
". . . . . . . . . . . . . . . . . . . ",
"+ + + + + + + + + + + + + + + + + + + ",
"+ + + + + + + + + + + + + + + + + + + ",
"+ + + + @ @ # $ % & * = @ @ + + + + + ",
"@ @ @ - ; > , ' ) ) ' ! ~ ; - @ @ @ @ ",
"@ @ @ ; { ] ^ / ( ( ! _ : < ; @ @ @ @ ",
"@ @ @ [ } | 1 2 3 4 5 : 6 7 [ @ @ @ @ ",
"@ @ @ 8 9 0 a b c d e f g h 8 @ @ @ @ ",
"- - - i j k l m n n h o p q i - - - - ",
"- - - r s t u t v w x y t z r - - - - ",
"- - - r A B C D E E D F G H r - - - - ",
"- - - [ [ I J K L L K J M ; [ - - - - ",
"; ; ; ; - - N O P P O Q + + ; ; ; ; ; ",
"; ; ; ; + R S S T T T U V . ; ; ; ; ; ",
"; ; ; ; ; W X Y Z Z Z `  .; ; ; ; ; ; ",
"[ [ [ [ [ [ . ..+.@.` S [ [ [ [ [ [ [ ",
"[ [ [ [ [ [ [ [ [ [ [ [ [ [ [ [ [ [ [ ",
"[ [ [ [ [ [ [ [ [ [ [ [ [ [ [ [ [ [ [ ",
". . . . . . . . . . . . . . . . . . . ",
". . . . . . . . . . . . . . . . . . . ",
"+ + + + + + + + + + + + + + + + + + + ",
"+ + + + + + + + + + + + + + + + + + + ",
"+ + + + @ @ #.$.%.&.*.=.@ @ + + + + + ",
"@ @ @ - ; -.;.>.,.,.'.).!.; - @ @ @ @ ",
"@ @ @ ; ~.{.].).^.^./.(._.:.; @ @ @ @ ",
"@ @ @ [ <.$._.].(.(.]._.*.[.[ @ @ @ @ ",
"@ @ @ 8 }.|.1.2.3.$.$.4.5.6.8 @ @ @ @ ",
"- - - i 7.8.9.0.6.6.6.9.a.7.i - - - - ",
"- - - r b.c.d.e.c.c.c.d.c.b.r - - - - ",
"- - - r V f.g.h.g.g.h.g.f.i.r - - - - ",
"- - - [ [ j.h.k.l.l.k.h.m.; [ - - - - ",
"; ; ; ; - - i.n.o.o.n.p.+ + ; ; ; ; ; ",
"; ; ; ; + R S S T T T U V . ; ; ; ; ; ",
"; ; ; ; ; W X Y Z Z Z `  .; ; ; ; ; ; ",
"[ [ [ [ [ [ . ..+.@.` S [ [ [ [ [ [ [ ",
"[ [ [ [ [ [ [ [ [ [ [ [ [ [ [ [ [ [ [ ",
"[ [ [ [ [ [ [ [ [ [ [ [ [ [ [ [ [ [ [ "};
