/* XPM */
static char * closeA_xpm[] = {
"19 38 81 1",
" 	c None",
".	c #282828",
"+	c #272727",
"@	c #262626",
"#	c #5C5C5C",
"$	c #CFCFCF",
"%	c #E3E3E3",
"&	c #E5E5E5",
"*	c #D2D2D2",
"=	c #5D5D5D",
"-	c #252525",
";	c #242424",
">	c #919191",
",	c #D8D8D8",
"'	c #DEDEDE",
")	c #DADADA",
"!	c #939393",
"~	c #525252",
"{	c #C1C1C1",
"]	c #C9C9C9",
"^	c #D1D1D1",
"/	c #D5D5D5",
"(	c #D6D6D6",
"_	c #CCCCCC",
":	c #C3C3C3",
"<	c #535353",
"[	c #232323",
"}	c #A5A5A5",
"|	c #BABABA",
"1	c #C2C2C2",
"2	c #C8C8C8",
"3	c #C4C4C4",
"4	c #BDBDBD",
"5	c #A8A8A8",
"6	c #222222",
"7	c #ABABAB",
"8	c #B2B2B2",
"9	c #B9B9B9",
"0	c #BEBEBE",
"a	c #BFBFBF",
"b	c #BBBBBB",
"c	c #B5B5B5",
"d	c #ADADAD",
"e	c #212121",
"f	c #A9A9A9",
"g	c #AFAFAF",
"h	c #B4B4B4",
"i	c #B6B6B6",
"j	c #B1B1B1",
"k	c #202020",
"l	c #969696",
"m	c #A4A4A4",
"n	c #A6A6A6",
"o	c #484848",
"p	c #A0A0A0",
"q	c #A2A2A2",
"r	c #A3A3A3",
"s	c #4A4A4A",
"t	c #727272",
"u	c #9D9D9D",
"v	c #9E9E9E",
"w	c #9F9F9F",
"x	c #737373",
"y	c #4B4B4B",
"z	c #9B9B9B",
"A	c #4C4C4C",
"B	c #2C2C2C",
"C	c #292929",
"D	c #2A2A2A",
"E	c #2B2B2B",
"F	c #2E2E2E",
"G	c #2D2D2D",
"H	c #343434",
"I	c #363636",
"J	c #383838",
"K	c #373737",
"L	c #2F2F2F",
"M	c #353535",
"N	c #393939",
"O	c #3A3A3A",
"P	c #000000",
"...................",
"...................",
"+++++++++++++++++++",
"+++++++++++++++++++",
"++++@@#$%&*=@@+++++",
"@@@-;>$,'')*!;-@@@@",
"@@@;~{]^/(*_:<;@@@@",
"@@@[}|12__]345[@@@@",
"@@@67890{{abcd6@@@@",
"---e}fghiihj7}e----",
"---klmn577fnmlk----",
"---kopqrmmrqpsk----",
"---[[tuvwwvux;[----",
";;;;--y>zz>A++;;;;;",
";;;;+BCCDDDEF.;;;;;",
";;;;;GHIJJJKL;;;;;;",
"[[[[[[.MNOKC[[[[[[[",
"[[[[[[[[[[[[[[[[[[[",
"[[[[[[[[[[[[[[[[[[[",
"PPPPPPPPPPPPPPPPPPP",
"PPPPPPPPPPPPPPPPPPP",
"PPPPPPPPPPPPPPPPPPP",
"PPPPPPPPPPPPPPPPPPP",
"PPPPPPPPPPPPPPPPPPP",
"PPPPPPPPPPPPPPPPPPP",
"PPPPPPPPPPPPPPPPPPP",
"PPPPPPPPPPPPPPPPPPP",
"PPPPPPPPPPPPPPPPPPP",
"PPPPPPPPPPPPPPPPPPP",
"PPPPPPPPPPPPPPPPPPP",
"PPPPPPPPPPPPPPPPPPP",
"PPPPPPPPPPPPPPPPPPP",
"PPPPPPPPPPPPPPPPPPP",
"PPPPPPPPPPPPPPPPPPP",
"PPPPPPPPPPPPPPPPPPP",
"PPPPPPPPPPPPPPPPPPP",
"PPPPPPPPPPPPPPPPPPP",
"PPPPPPPPPPPPPPPPPPP"};
