/* XPM */
static char * frameABL_xpm[] = {
"5 22 14 1",
" 	c None",
".	c #100C0D",
"+	c #202020",
"@	c #101010",
"#	c #0F0D0E",
"$	c #292526",
"%	c #110E0C",
"&	c #2E2B2B",
"*	c #161515",
"=	c #1D1610",
"-	c #231F21",
";	c #272525",
">	c #181517",
",	c #1C150F",
".+@@@",
".+@@@",
".+@@@",
".+@@@",
".+@@@",
".+@@@",
".+@@@",
".+@@@",
".+@@@",
".+@@@",
".+@@@",
".+@@@",
".+@@@",
".+@@@",
"#$@@@",
"#$@@@",
"%&*@@",
"=-;@@",
" >&*@",
" =-&;",
"  ,--",
"    ,"};
