/* XPM */
static char * frameATL_xpm[] = {
"5 22 28 1",
" 	c None",
".	c #170103",
"+	c #3E3A39",
"@	c #231F21",
"#	c #4F4E4E",
"$	c #3D3C3C",
"%	c #282828",
"&	c #494848",
"*	c #1B130E",
"=	c #393838",
"-	c #272727",
";	c #0F0D0E",
">	c #464646",
",	c #424242",
"'	c #262626",
")	c #413F41",
"!	c #413C3F",
"~	c #413D3E",
"{	c #403C3D",
"]	c #252525",
"^	c #3F3B3C",
"/	c #3E3A3B",
"(	c #3D393A",
"_	c #242424",
":	c #3C3839",
"<	c #3A3637",
"[	c #232323",
"}	c #393536",
"     ",
"   .+",
"  @##",
" @#$%",
" @&%%",
"*&=--",
";>---",
";,---",
";,'''",
";)'''",
";!'''",
";~'''",
";{]]]",
";^]]]",
";/]]]",
";(]]]",
";(___",
";(___",
";:___",
";<[[[",
";}[[[",
";}[[["};
