/* XPM */
static char * menusel_xpm[] = {
"4 25 21 1",
" 	c None",
".	c #010101",
"+	c #383838",
"@	c #242424",
"#	c #252525",
"$	c #232323",
"%	c #222222",
"&	c #212121",
"*	c #202020",
"=	c #1F1F1F",
"-	c #1E1E1E",
";	c #1C1C1C",
">	c #191919",
",	c #171717",
"'	c #161616",
")	c #151515",
"!	c #141414",
"~	c #131313",
"{	c #121212",
"]	c #111111",
"^	c #3C3C3C",
"....",
"++++",
"@@@@",
"@@@@",
"####",
"@@@@",
"$$$$",
"%%%%",
"&&&&",
"****",
"====",
"----",
";;;;",
">>>>",
",,,,",
"''''",
"))))",
"!!!!",
"~~~~",
"{{{{",
"]]]]",
"]]]]",
"]]]]",
"....",
"^^^^"};
