/* XPM */
static char * menuButtonA_xpm[] = {
"19 38 7 1",
" 	c None",
".	c #282828",
"+	c #272727",
"@	c #262626",
"#	c #252525",
"$	c #242424",
"%	c #232323",
"...................",
"...................",
"+++++++++++++++++++",
"+++++++++++++++++++",
"+++++++++++++++++++",
"@@@@@@@@@@@@@@@@@@@",
"@@@@@@@@@@@@@@@@@@@",
"@@@@@@@@@@@@@@@@@@@",
"@@@@@@@@@@@@@@@@@@@",
"###################",
"###################",
"###################",
"###################",
"$$$$$$$$$$$$$$$$$$$",
"$$$$$$$$$$$$$$$$$$$",
"$$$$$$$$$$$$$$$$$$$",
"%%%%%%%%%%%%%%%%%%%",
"%%%%%%%%%%%%%%%%%%%",
"%%%%%%%%%%%%%%%%%%%",
"...................",
"...................",
"+++++++++++++++++++",
"+++++++++++++++++++",
"+++++++++++++++++++",
"@@@@@@@@@@@@@@@@@@@",
"@@@@@@@@@@@@@@@@@@@",
"@@@@@@@@@@@@@@@@@@@",
"@@@@@@@@@@@@@@@@@@@",
"###################",
"###################",
"###################",
"###################",
"$$$$$$$$$$$$$$$$$$$",
"$$$$$$$$$$$$$$$$$$$",
"$$$$$$$$$$$$$$$$$$$",
"%%%%%%%%%%%%%%%%%%%",
"%%%%%%%%%%%%%%%%%%%",
"%%%%%%%%%%%%%%%%%%%"};
