/* XPM */
static char * desktop_xpm[] = {
"20 20 206 2",
"  	c None",
". 	c #93C054",
"+ 	c #8CB949",
"@ 	c #8CB84C",
"# 	c #8EBA50",
"$ 	c #8FBA52",
"% 	c #8EB953",
"& 	c #8DB851",
"* 	c #8CB750",
"= 	c #89B44F",
"- 	c #86B14F",
"; 	c #83AE4D",
"> 	c #7FA94C",
", 	c #7CA649",
"' 	c #7BA44A",
") 	c #6A953C",
"! 	c #3F6E26",
"~ 	c #87B646",
"{ 	c #9EB884",
"] 	c #9DB978",
"^ 	c #86B149",
"/ 	c #88B24D",
"( 	c #87B24D",
"_ 	c #86B04D",
": 	c #83AF4C",
"< 	c #82AD4A",
"[ 	c #80AA49",
"} 	c #7BA748",
"| 	c #7AA646",
"1 	c #7BA849",
"2 	c #619435",
"3 	c #1E5902",
"4 	c #37701A",
"5 	c #86BD44",
"6 	c #B6B8B3",
"7 	c #A1B983",
"8 	c #7FAA46",
"9 	c #81AB4B",
"0 	c #81AE4A",
"a 	c #84B24B",
"b 	c #88B74D",
"c 	c #88BC4D",
"d 	c #8DC350",
"e 	c #8EBE52",
"f 	c #84AE4F",
"g 	c #84A853",
"h 	c #3C5F23",
"i 	c #24470E",
"j 	c #1D3E0B",
"k 	c #2D4D1B",
"l 	c #7BA746",
"m 	c #80AB46",
"n 	c #73A43F",
"o 	c #81AB4A",
"p 	c #84AE4D",
"q 	c #85AE4C",
"r 	c #84AD4E",
"s 	c #82AC4C",
"t 	c #7FA84A",
"u 	c #7BA249",
"v 	c #759A46",
"w 	c #759D45",
"x 	c #618B38",
"y 	c #2E600F",
"z 	c #285F09",
"A 	c #316D0E",
"B 	c #35740F",
"C 	c #40771F",
"D 	c #81B44A",
"E 	c #E0E672",
"F 	c #D7D970",
"G 	c #72A143",
"H 	c #7AA647",
"I 	c #7BA747",
"J 	c #7AA846",
"K 	c #7AA845",
"L 	c #7BA946",
"M 	c #7AAB46",
"N 	c #7AA746",
"O 	c #588B2D",
"P 	c #3E7B13",
"Q 	c #4B8D1D",
"R 	c #45791E",
"S 	c #305915",
"T 	c #1C3E08",
"U 	c #305F17",
"V 	c #6F9D41",
"W 	c #749A40",
"X 	c #759C41",
"Y 	c #719B43",
"Z 	c #749B45",
"` 	c #779E46",
" .	c #7AA349",
"..	c #7EA54C",
"+.	c #739B47",
"@.	c #41711D",
"#.	c #396E13",
"$.	c #356713",
"%.	c #2E5C0E",
"&.	c #346D10",
"*.	c #3D7F12",
"=.	c #3F8014",
"-.	c #488324",
";.	c #6C993F",
">.	c #6C9741",
",.	c #6C9640",
"'.	c #6D9A3F",
").	c #6D9C3E",
"!.	c #6E9C3F",
"~.	c #6F9D3F",
"{.	c #72A140",
"].	c #629732",
"^.	c #418212",
"/.	c #4A881B",
"(.	c #467C1B",
"_.	c #467E1B",
":.	c #457A1E",
"<.	c #315A16",
"[.	c #234110",
"}.	c #153505",
"|.	c #294F16",
"1.	c #6DA13E",
"2.	c #6C9A3D",
"3.	c #6A983D",
"4.	c #70A03F",
"5.	c #74A841",
"6.	c #7FB847",
"7.	c #5D992A",
"8.	c #4A7A22",
"9.	c #3B5F1C",
"0.	c #284A10",
"a.	c #346511",
"b.	c #396E14",
"c.	c #387112",
"d.	c #366F11",
"e.	c #30680E",
"f.	c #255809",
"g.	c #34661A",
"h.	c #64903B",
"i.	c #658E3C",
"j.	c #66913B",
"k.	c #69953D",
"l.	c #719D42",
"m.	c #618F37",
"n.	c #3E6C1D",
"o.	c #3F6F1B",
"p.	c #4D8521",
"q.	c #539123",
"r.	c #549123",
"s.	c #4D8821",
"t.	c #467E1E",
"u.	c #3F7519",
"v.	c #3A7118",
"w.	c #396F16",
"x.	c #356D12",
"y.	c #427B1F",
"z.	c #629238",
"A.	c #608B3A",
"B.	c #608A39",
"C.	c #5F863A",
"D.	c #376318",
"E.	c #2A5E0B",
"F.	c #3A7111",
"G.	c #3C7212",
"H.	c #3B7414",
"I.	c #3A7112",
"J.	c #376E12",
"K.	c #346A11",
"L.	c #30650F",
"M.	c #2D610E",
"N.	c #295B0C",
"O.	c #235508",
"P.	c #2C6013",
"Q.	c #4C7C28",
"R.	c #5E892C",
"S.	c #5A8D33",
"T.	c #447F20",
"U.	c #488223",
"V.	c #4D8927",
"W.	c #528C28",
"X.	c #549129",
"Y.	c #55922A",
"Z.	c #548F29",
"`.	c #508C28",
" +	c #4D8727",
".+	c #4B8725",
"++	c #47841F",
"@+	c #45851F",
"#+	c #43821D",
"$+	c #377912",
"%+	c #669736",
"&+	c #7B9FE8",
"*+	c #000000",
"=+	c #060408",
"-+	c #060308",
";+	c #060407",
">+	c #050407",
",+	c #050308",
"'+	c #070407",
")+	c #070507",
"!+	c #090908",
"~+	c #050605",
"{+	c #393839",
"]+	c #29282A",
"^+	c #2A272D",
"/+	c #4A6E35",
"                                        ",
"                                        ",
"                                        ",
"                                        ",
"  . + @ # $ $ $ % & * = - ; > , ' ) !   ",
"  ~ { ] ^ / ( ( _ : < [ } | | 1 2 3 4   ",
"  5 6 7 8 9 9 0 a b c d e f g h i j k   ",
"  l m n o p q r s t u v w x y z A B C   ",
"  D E F G H I J K L M N O P Q R S T U   ",
"  V W X Y Z `  .' ..+.@.#.$.%.&.*.=.-.  ",
"  ;.>.,.'.).!.~.{.].^./.(._.:.<.[.}.|.  ",
"  1.2.3.).4.5.6.7.8.9.0.a.b.c.d.e.f.g.  ",
"  h.i.j.k.l.m.n.o.p.q.r.s.t.u.v.w.x.y.  ",
"  z.A.B.C.D.E.&.F.G.H.I.J.K.L.M.N.O.P.  ",
"  Q.R.S.T.U.V.W.X.Y.Y.Z.`. +.+++@+#+$+  ",
"  %+&+*+=+-+;+>+;+,+,+'+)+!+~+{+]+^+/+  ",
"                                        ",
"                                        ",
"                                        ",
"                                        "};
