/* XPM */
static char * linux_xpm[] = {
"56 20 97 2",
"  	c None",
". 	c #3D3D3D",
"+ 	c #3B3B3B",
"@ 	c #393939",
"# 	c #373737",
"$ 	c #363636",
"% 	c #FFFFFF",
"& 	c #444443",
"* 	c #A4AD74",
"= 	c #CBE928",
"- 	c #C5E904",
"; 	c #C9EA1B",
"> 	c #BAC96D",
", 	c #494A48",
"' 	c #E6E6E6",
") 	c #353535",
"! 	c #6A6A6A",
"~ 	c #B9C76F",
"{ 	c #707262",
"] 	c #7B7F69",
"^ 	c #CCE449",
"/ 	c #AFBB73",
"( 	c #636363",
"_ 	c #333333",
": 	c #CAEA1F",
"< 	c #7F836A",
"[ 	c #C9EA18",
"} 	c #383838",
"| 	c #313131",
"1 	c #F6F6F6",
"2 	c #F7F7F7",
"3 	c #BFE106",
"4 	c #3D3D3C",
"5 	c #65675A",
"6 	c #2E2E2E",
"7 	c #ECECEC",
"8 	c #B8D80A",
"9 	c #DFDFDF",
"0 	c #2C2C2C",
"a 	c #E1E1E1",
"b 	c #E2E2E2",
"c 	c #B0CF0D",
"d 	c #B0CE0D",
"e 	c #B1CF0D",
"f 	c #626262",
"g 	c #5D5D5D",
"h 	c #2B2B2B",
"i 	c #D7D7D7",
"j 	c #A9C511",
"k 	c #A9C611",
"l 	c #292929",
"m 	c #CDCDCC",
"n 	c #CDCCCC",
"o 	c #CDCDCD",
"p 	c #A2BD14",
"q 	c #A2BC15",
"r 	c #A2BC14",
"s 	c #353534",
"t 	c #5E6054",
"u 	c #CDCCCD",
"v 	c #262626",
"w 	c #C2C2C2",
"x 	c #A2B72E",
"y 	c #9BB318",
"z 	c #70745D",
"A 	c #9FB625",
"B 	c #C2C2C1",
"C 	c #C2C1C2",
"D 	c #242424",
"E 	c #5B5B5B",
"F 	c #B7B7B7",
"G 	c #8C9364",
"H 	c #94AA1C",
"I 	c #93A91B",
"J 	c #616355",
"K 	c #616354",
"L 	c #696C59",
"M 	c #A1B148",
"N 	c #949E64",
"O 	c #B8B8B8",
"P 	c #545454",
"Q 	c #232323",
"R 	c #ADADAD",
"S 	c #333332",
"T 	c #96A05F",
"U 	c #93A52E",
"V 	c #8CA01F",
"W 	c #8CA11F",
"X 	c #91A42C",
"Y 	c #96A15E",
"Z 	c #3A3B38",
"` 	c #A7A7A7",
" .	c #222222",
"..	c #202020",
"+.	c #1E1E1E",
"@.	c #1C1C1C",
"#.	c #1B1B1B",
". . . . . . . . . . . . . . . . . . . . . . . . . . . . . . . . . . . . . . . . . . . . . . . . . . . . . . . . ",
"+ + + + + + + + + + + + + + + + + + + + + + + + + + + + + + + + + + + + + + + + + + + + + + + + + + + + + + + + ",
"@ @ @ @ @ @ @ @ @ @ @ @ @ @ @ @ @ @ @ @ @ @ @ @ @ @ @ @ @ @ @ @ @ @ @ @ @ @ @ @ @ @ @ @ @ @ @ @ @ @ @ @ @ @ @ @ ",
"# # # # # # # # # # # # # # # # # # # # # # # # # # # # # # # # # # # # # # # # # # # # # # # # # # # # # # # # ",
"$ $ $ $ % % % % % % % % % $ $ & * = - - - - - ; > , $ $ % % % % % % % % % % ' $ $ $ $ $ $ $ $ $ $ $ $ $ $ $ $ $ ",
") ) ) ) ! ! % % % % % ! ! ) ) ~ - - - - { { { ] ^ / ) ) % % % % % ! ! ! ! ! ( ) ) ) ) ) ) ) ) ) ) ) ) ) ) ) ) ) ",
"_ _ _ _ _ _ % % % % % _ _ _ _ : - - - - _ _ _ _ < [ } _ % % % % % _ _ _ _ _ _ _ _ _ _ _ _ _ _ _ _ _ _ _ _ _ _ _ ",
"| | | | | | 1 1 2 1 1 | | | | 3 3 3 3 3 | | | | 4 5 _ | 1 1 2 1 1 | | | | | | | % % | | | - - | | | % % | | | | ",
"6 6 6 6 6 6 7 7 7 7 7 6 6 6 6 8 8 8 8 8 6 6 6 6 6 6 6 6 7 7 7 7 7 7 7 7 9 6 6 6 6 % % 6 6 6 - - 6 6 6 % % 6 6 6 ",
"0 0 0 0 0 0 a a b a a 0 0 0 0 c d d e d 0 0 0 0 0 0 0 0 a a a b a f f f g 0 0 0 0 0 % % 0 0 0 - - 0 0 0 % % 0 0 ",
"h h h h h h i i i i i h h h h j j j k k h h h h h h h h i i i i i h h h h h h h h % % h h h - - h h h % % h h h ",
"l l l l l l m m n n o l l l l p p q r p l l l l s t h l n m o u u l l l l l l l % % l l l - - l l l % % l l l l ",
"v v v v v v w w w w w v v v v x y y y y v v v v z A h v B C C C w v v v v v v v v v v v v v v v v v v v v v v v ",
"D D D D E E F F F F F E E D D G H I I I J K K L M N D D F O F F F E E E E E P D D D D D D D D D D D D D D D D D ",
"Q Q Q Q R R R R R R R R R Q Q S T U V W V V W X Y Z Q Q R R R R R R R R R R ` Q Q Q Q Q Q Q Q Q Q Q Q Q Q Q Q Q ",
" . . . . . . . . . . . . . . . . . . . . . . . . . . . . . . . . . . . . . . . . . . . . . . . . . . . . . . . .",
"................................................................................................................",
"+.+.+.+.+.+.+.+.+.+.+.+.+.+.+.+.+.+.+.+.+.+.+.+.+.+.+.+.+.+.+.+.+.+.+.+.+.+.+.+.+.+.+.+.+.+.+.+.+.+.+.+.+.+.+.+.",
"@.@.@.@.@.@.@.@.@.@.@.@.@.@.@.@.@.@.@.@.@.@.@.@.@.@.@.@.@.@.@.@.@.@.@.@.@.@.@.@.@.@.@.@.@.@.@.@.@.@.@.@.@.@.@.@.",
"#.#.#.#.#.#.#.#.#.#.#.#.#.#.#.#.#.#.#.#.#.#.#.#.#.#.#.#.#.#.#.#.#.#.#.#.#.#.#.#.#.#.#.#.#.#.#.#.#.#.#.#.#.#.#.#."};
