/* XPM */
static char * linux_xpm[] = {
"56 20 249 2",
"  	c None",
". 	c #3D3D3D",
"+ 	c #484848",
"@ 	c #9A9C97",
"# 	c #CECFCB",
"$ 	c #999C96",
"% 	c #484847",
"& 	c #3B3B3B",
"* 	c #50504F",
"= 	c #A0A39D",
"- 	c #EFEFEE",
"; 	c #FFFFFF",
"> 	c #9DA09A",
", 	c #4F4F4E",
"' 	c #393939",
") 	c #595957",
"! 	c #A8ABA7",
"~ 	c #F6F6F5",
"{ 	c #FCFCFC",
"] 	c #F1F1EF",
"^ 	c #A7A8A4",
"/ 	c #575756",
"( 	c #373737",
"_ 	c #646563",
": 	c #B4B6B0",
"< 	c #FAFAFA",
"[ 	c #FBFBFA",
"} 	c #EFEFED",
"| 	c #F2F2F1",
"1 	c #AFB0AD",
"2 	c #61625F",
"3 	c #363636",
"4 	c #71736E",
"5 	c #BFC1BB",
"6 	c #FDFDFC",
"7 	c #F8F8F8",
"8 	c #F5F5F4",
"9 	c #EAEBE9",
"0 	c #F8F8F7",
"a 	c #B8BAB5",
"b 	c #6B6C6A",
"c 	c #353535",
"d 	c #383838",
"e 	c #7D7F7B",
"f 	c #CACCC9",
"g 	c #FEFEFE",
"h 	c #F0F0EE",
"i 	c #CDCECA",
"j 	c #CBCDC9",
"k 	c #F3F4F2",
"l 	c #EBECE9",
"m 	c #F2F3F2",
"n 	c #FDFDFD",
"o 	c #C4C6C1",
"p 	c #757773",
"q 	c #333333",
"r 	c #858783",
"s 	c #D8D9D6",
"t 	c #F4F4F2",
"u 	c #F0F0EF",
"v 	c #BDBFBB",
"w 	c #7C7D78",
"x 	c #3E3E3D",
"y 	c #7A7D78",
"z 	c #BABCB8",
"A 	c #E9E9E6",
"B 	c #EDEDEB",
"C 	c #D1D3CF",
"D 	c #7B7D78",
"E 	c #3A3A3A",
"F 	c #313131",
"G 	c #3B3B3A",
"H 	c #8B8E89",
"I 	c #E5E6E4",
"J 	c #FEFEFD",
"K 	c #F1F1F0",
"L 	c #F2F2F0",
"M 	c #AFB1AC",
"N 	c #6D6F6B",
"O 	c #323232",
"P 	c #6B6B68",
"Q 	c #A9ACA7",
"R 	c #EAEBE8",
"S 	c #E6E7E4",
"T 	c #E6E7E3",
"U 	c #DFDFDD",
"V 	c #7E807C",
"W 	c #C5E904",
"X 	c #2E2E2E",
"Y 	c #696967",
"Z 	c #E9E9E8",
"` 	c #F3F3F1",
" .	c #EBECEA",
"..	c #A1A39E",
"+.	c #5C5D5A",
"@.	c #5A5B5A",
"#.	c #999B97",
"$.	c #E2E3E0",
"%.	c #E5E6E3",
"&.	c #DEDFDC",
"*.	c #FAFAF9",
"=.	c #D2D3D0",
"-.	c #666865",
";.	c #2C2C2C",
">.	c #898B86",
",.	c #FFFFFE",
"'.	c #E4E4E2",
").	c #939690",
"!.	c #4D4E4C",
"~.	c #4B4C4A",
"{.	c #8A8C88",
"].	c #D7D9D5",
"^.	c #E4E5E2",
"/.	c #D8DAD6",
"(.	c #E1E3DF",
"_.	c #777875",
":.	c #2B2B2B",
"<.	c #636462",
"[.	c #E4E6E4",
"}.	c #F1F2F0",
"|.	c #D4D5D2",
"1.	c #878883",
"2.	c #414140",
"3.	c #3F403E",
"4.	c #7C7E7A",
"5.	c #BCBCB9",
"6.	c #5D5F5C",
"7.	c #292929",
"8.	c #333332",
"9.	c #5E5F5E",
"0.	c #81827E",
"a.	c #7F837D",
"b.	c #70736F",
"c.	c #3D3E3D",
"d.	c #393938",
"e.	c #6D706A",
"f.	c #717570",
"g.	c #757772",
"h.	c #585956",
"i.	c #2F2F2E",
"j.	c #262626",
"k.	c #757672",
"l.	c #DCDCDB",
"m.	c #CBCBC9",
"n.	c #6C6E69",
"o.	c #3A3B3A",
"p.	c #6A6C68",
"q.	c #7E807B",
"r.	c #7D7F7A",
"s.	c #7C7E79",
"t.	c #6B6D69",
"u.	c #393A39",
"v.	c #6B6D68",
"w.	c #D5D6D3",
"x.	c #C1C2BE",
"y.	c #636562",
"z.	c #242424",
"A.	c #7F827C",
"B.	c #FCFCFB",
"C.	c #EEEEEC",
"D.	c #6A6B67",
"E.	c #E4E5E3",
"F.	c #636461",
"G.	c #747772",
"H.	c #F9F9F8",
"I.	c #DFE0DD",
"J.	c #72746F",
"K.	c #232323",
"L.	c #FBFBFB",
"M.	c #EBEBE9",
"N.	c #797B76",
"O.	c #777974",
"P.	c #E7E7E5",
"Q.	c #E4E4E1",
"R.	c #E3E3E0",
"S.	c #E1E2DF",
"T.	c #70726E",
"U.	c #DBDCD9",
"V.	c #6E706B",
"W.	c #222222",
"X.	c #737570",
"Y.	c #F9F9F9",
"Z.	c #E1E2DE",
"`.	c #DDDEDB",
" +	c #F7F8F7",
".+	c #D7D9D4",
"++	c #696C67",
"@+	c #202020",
"#+	c #727570",
"$+	c #70726D",
"%+	c #6F716D",
"&+	c #6E716C",
"*+	c #F8F9F8",
"=+	c #DDDEDA",
"-+	c #DADCD8",
";+	c #D9DAD6",
">+	c #696B67",
",+	c #686B66",
"'+	c #686A65",
")+	c #F6F7F6",
"!+	c #D3D5D0",
"~+	c #656763",
"{+	c #1E1E1E",
"]+	c #1D1D1D",
"^+	c #6E706C",
"/+	c #DFE0DC",
"(+	c #F4F4F3",
"_+	c #676A65",
":+	c #D6D8D3",
"<+	c #D5D7D2",
"[+	c #F6F6F6",
"}+	c #CFD1CC",
"|+	c #61635F",
"1+	c #1C1C1C",
"2+	c #1B1B1B",
"3+	c #1A1A1A",
"4+	c #585855",
"5+	c #CDCECB",
"6+	c #DBDCD8",
"7+	c #D9DBD7",
"8+	c #D8D9D5",
"9+	c #D7D8D4",
"0+	c #D6D7D3",
"a+	c #B3B5B1",
"b+	c #636561",
"c+	c #B1B3AE",
"d+	c #D1D3CE",
"e+	c #D0D2CD",
"f+	c #CFD0CB",
"g+	c #CDCFCA",
"h+	c #CCCEC9",
"i+	c #AAADA8",
"j+	c #4F514D",
"k+	c #181818",
"l+	c #272827",
"m+	c #555754",
"n+	c #646662",
"o+	c #626460",
"p+	c #61635E",
"q+	c #4E504C",
"r+	c #363735",
"s+	c #50514F",
"t+	c #5D5F5B",
"u+	c #5C5E5A",
"v+	c #5C5E59",
"w+	c #5B5D59",
"x+	c #5A5C58",
"y+	c #494A47",
"z+	c #252525",
". . . . . . . . . . + @ # $ % . . . . . . . . . . . . . . . . . . . . . . . . . . . . . . . . . . . . . . . . . ",
"& & & & & & & & & * = - ; - > , & & & & & & & & & & & & & & & & & & & & & & & & & & & & & & & & & & & & & & & & ",
"' ' ' ' ' ' ' ' ) ! ~ { ] { ~ ^ / ' ' ' ' ' ' ' ' ' ' ' ' ' ' ' ' ' ' ' ' ' ' ' ' ' ' ' ' ' ' ' ' ' ' ' ' ' ' ' ",
"( ( ( ( ( ( ( _ : < [ } | } [ < 1 2 ( ( ( ( ( ( ( ( ( ( ( ( ( ( ( ( ( ( ( ( ( ( ( ( ( ( ( ( ( ( ( ( ( ( ( ( ( ( ",
"3 3 3 3 3 3 4 5 6 7 } 8 9 8 } 0 { a b 3 3 3 3 3 3 3 3 3 3 3 3 3 3 3 3 3 3 3 3 3 3 3 3 3 3 3 3 3 3 3 3 3 3 3 3 3 ",
"c c c c d e f g ~ h 8 i $ j k l m n o p d c c c c c c c c c c c c c c c c c c c c c c c c c c c c c c c c c c c ",
"q q q & r s g t u t v w x y z h A B n C D E q q q q q q q q q q q q q q q q q q q q q q q q q q q q q q q q q q ",
"F F G H I J K L ] M N O F O P Q R S T { U V ' F F F F F F F F F F F F F F F F F ; ; F F F W W F F F ; ; F F F F ",
"X X Y Z 6 h `  ...+.X X X X X @.#.$.%.&.*.=.-.X X X X X X X X X X X X X X X X X X ; ; X X X W W X X X ; ; X X X ",
";.;.>.,.L t '.).!.;.;.;.;.;.;.;.~.{.].^./.(._.;.;.;.;.;.;.;.;.;.;.;.;.;.;.;.;.;.;.;.; ; ;.;.;.W W ;.;.;.; ; ;.;.",
":.:.<.[.}.|.1.2.:.:.:.:.:.:.:.:.:.3.4.o $.5.6.:.:.:.:.:.:.:.:.:.:.:.:.:.:.:.:.:.:.; ; :.:.:.W W :.:.:.; ; :.:.:.",
"7.7.8.9.0.a.b.c.7.7.7.7.7.7.7.7.7.d.e.f.g.h.i.7.7.7.7.7.7.7.7.7.7.7.7.7.7.7.7.7.; ; 7.7.7.W W 7.7.7.; ; 7.7.7.7.",
"j.j.j.j.k.l.m.n.j.o.p.q.r.s.t.u.j.v.w.x.y.j.j.j.j.j.j.j.j.j.j.j.j.j.j.j.j.j.j.j.j.j.j.j.j.j.j.j.j.j.j.j.j.j.j.j.",
"z.z.z.z.A.B.C.r.z.D.E.< < < w.F.z.G.H.I.J.z.z.z.z.z.z.z.z.z.z.z.z.z.z.z.z.z.z.z.z.z.z.z.z.z.z.z.z.z.z.z.z.z.z.z.",
"K.K.K.K.D L.M.N.K.O.*.P.Q.R.S.J.K.T.7 U.V.K.K.K.K.K.K.K.K.K.K.K.K.K.K.K.K.K.K.K.K.K.K.K.K.K.K.K.K.K.K.K.K.K.K.K.",
"W.W.W.W.O.< P.G.W.X.Y.Z.T.&.`.V.W.n. +.+++W.W.W.W.W.W.W.W.W.W.W.W.W.W.W.W.W.W.W.W.W.W.W.W.W.W.W.W.W.W.W.W.W.W.W.",
"@+@+@+@+#+*.R.$+%+&+*+=+n.-+;+>+,+'+)+!+~+@+@+@+@+@+@+@+@+@+@+@+@+@+@+@+@+@+@+@+@+@+@+@+@+@+@+@+@+@+@+@+@+@+@+@+",
"{+{+]+]+^+H./+(+7 0 0 ;+_+:+<+K [+~ ~ }+|+]+]+{+{+{+{+{+{+{+{+{+{+{+{+{+{+{+{+{+{+{+{+{+{+{+{+{+{+{+{+{+{+{+{+{+",
"1+1+2+3+4+5+6+7+8+9+0+a+b+c+d+e+f+g+h+i+j+3+2+1+1+1+1+1+1+1+1+1+1+1+1+1+1+1+1+1+1+1+1+1+1+1+1+1+1+1+1+1+1+1+1+1+",
"2+2+3+k+l+m+n+b+o+|+p+q+r+s+t+u+v+w+x+y+z+k+3+2+2+2+2+2+2+2+2+2+2+2+2+2+2+2+2+2+2+2+2+2+2+2+2+2+2+2+2+2+2+2+2+2+"};
