/* XPM */
static char * taskbuttonbg_xpm[] = {
"4 25 12 1",
" 	c None",
".	c #000000",
"+	c #282828",
"@	c #272727",
"#	c #262626",
"$	c #252525",
"%	c #242424",
"&	c #232323",
"*	c #222222",
"=	c #212121",
"-	c #202020",
";	c #3B3B3B",
"....",
"++++",
"++++",
"@@@@",
"####",
"####",
"$$$$",
"$$$$",
"%%%%",
"%%%%",
"&&&&",
"&&&&",
"****",
"====",
"====",
"----",
"----",
"----",
"----",
"----",
"----",
"----",
"....",
";;;;",
"...."};
