/* XPM */
static char * taskbarbg_xpm[] = {
"4 25 28 1",
" 	c None",
".	c #2D2D2D",
"+	c #2E2E2E",
"@	c #4C4C4C",
"#	c #4D4D4D",
"$	c #3E3E3E",
"%	c #3F3F3F",
"&	c #3D3D3D",
"*	c #3B3B3B",
"=	c #393939",
"-	c #373737",
";	c #363636",
">	c #353535",
",	c #333333",
"'	c #313131",
")	c #2C2C2C",
"!	c #2B2B2B",
"~	c #292929",
"{	c #262626",
"]	c #242424",
"^	c #232323",
"/	c #222222",
"(	c #202020",
"_	c #1E1E1E",
":	c #1C1C1C",
"<	c #1B1B1B",
"[	c #191919",
"}	c #000000",
"..++",
"@@@#",
"$$%%",
"&&&&",
"****",
"====",
"----",
";;;;",
">>>>",
",,,,",
"''''",
"++++",
"))))",
"!!!!",
"~~~~",
"{{{{",
"]]]]",
"^^^^",
"////",
"((((",
"____",
"::::",
"<<<<",
"[[[[",
"}}}}"};
