/* XPM */
static char * windows_xpm[] = {
"20 20 181 2",
"  	c None",
". 	c #F1F2F3",
"+ 	c #F2F2F3",
"@ 	c #F3F3F4",
"# 	c #F3F4F4",
"$ 	c #F4F4F5",
"% 	c #F4F5F6",
"& 	c #F5F6F6",
"* 	c #FEFFFF",
"= 	c #FCFCFC",
"- 	c #F7F8F8",
"; 	c #F1F2F2",
"> 	c #E4E5E5",
", 	c #E5E6E7",
"' 	c #E8E9E9",
") 	c #E9EAEA",
"! 	c #E9EAEB",
"~ 	c #EBECEC",
"{ 	c #EBEDED",
"] 	c #EFF0F0",
"^ 	c #F4F4F4",
"/ 	c #F0F1F1",
"( 	c #ECEDED",
"_ 	c #F8F8F8",
": 	c #E0E1E2",
"< 	c #D8D9D9",
"[ 	c #DADBDB",
"} 	c #DCDDDC",
"| 	c #DCDDDD",
"1 	c #DDDEDD",
"2 	c #DDDEDE",
"3 	c #DEDFDF",
"4 	c #E7E8E8",
"5 	c #F9FAFA",
"6 	c #BBBCBB",
"7 	c #9D9E9C",
"8 	c #9C9D9B",
"9 	c #BFBFBE",
"0 	c #FCFDFD",
"a 	c #F7F6F7",
"b 	c #B8BAB8",
"c 	c #929391",
"d 	c #949693",
"e 	c #979896",
"f 	c #9A9B99",
"g 	c #9B9C9A",
"h 	c #989997",
"i 	c #969794",
"j 	c #BDBFBD",
"k 	c #FEFDFD",
"l 	c #D7D8D8",
"m 	c #767775",
"n 	c #858683",
"o 	c #8E8F8D",
"p 	c #8E908D",
"q 	c #8F908E",
"r 	c #949592",
"s 	c #989996",
"t 	c #898A87",
"u 	c #B7B6B5",
"v 	c #FFFFFF",
"w 	c #E4E5E6",
"x 	c #E4E4E5",
"y 	c #E5E5E6",
"z 	c #C3C4C5",
"A 	c #ADAEAD",
"B 	c #9E9E9E",
"C 	c #AFB1B0",
"D 	c #504F4E",
"E 	c #B2B3B2",
"F 	c #8D8E8C",
"G 	c #868785",
"H 	c #898A88",
"I 	c #757773",
"J 	c #B1B1B0",
"K 	c #E4E5E4",
"L 	c #E5E6E6",
"M 	c #E7E8E9",
"N 	c #EDEEEF",
"O 	c #FAFAFA",
"P 	c #EEEFEF",
"Q 	c #858684",
"R 	c #9EA19D",
"S 	c #8C8C8B",
"T 	c #BCBDBB",
"U 	c #F2F2F4",
"V 	c #E1E4E9",
"W 	c #D8DCE1",
"X 	c #DADEE4",
"Y 	c #DBE0E6",
"Z 	c #DCE1E7",
"` 	c #DDE2E8",
" .	c #DDE3E8",
"..	c #DEE3E9",
"+.	c #DEE4E9",
"@.	c #EAEDF0",
"#.	c #8D8E8D",
"$.	c #B3B4B2",
"%.	c #C5C5C4",
"&.	c #F4F6F7",
"*.	c #DBC49D",
"=.	c #D2AB69",
"-.	c #D2AB6A",
";.	c #D1AA6A",
">.	c #D0A968",
",.	c #DEC7A1",
"'.	c #EEEFF0",
").	c #969796",
"!.	c #BDBEBC",
"~.	c #A1A29F",
"{.	c #C7C8C7",
"].	c #F5F6F9",
"^.	c #F5D69F",
"/.	c #FFC764",
"(.	c #FFC867",
"_.	c #F9D9A3",
":.	c #F0F2F4",
"<.	c #BBBBBB",
"[.	c #FDFDFD",
"}.	c #F6F8FB",
"|.	c #F5D092",
"1.	c #FFBB47",
"2.	c #FFBB4B",
"3.	c #FFBB4A",
"4.	c #FFBA47",
"5.	c #F9D496",
"6.	c #F4F5F8",
"7.	c #A4A4A4",
"8.	c #E3E3E3",
"9.	c #E1E1E1",
"0.	c #F7F9FE",
"a.	c #F6C674",
"b.	c #FF9D00",
"c.	c #FFA30A",
"d.	c #FFA613",
"e.	c #FFA918",
"f.	c #FFA919",
"g.	c #FAC979",
"h.	c #FCFDFF",
"i.	c #F8FBFE",
"j.	c #F7C778",
"k.	c #FF9E00",
"l.	c #FFA000",
"m.	c #FFA500",
"n.	c #FFAB00",
"o.	c #FFAC00",
"p.	c #FFA600",
"q.	c #FBCB7C",
"r.	c #FAFCFF",
"s.	c #F8C879",
"t.	c #FFA100",
"u.	c #FFAD00",
"v.	c #FFB800",
"w.	c #FFBE00",
"x.	c #FFC200",
"y.	c #FCCC7D",
"z.	c #F8C875",
"A.	c #FFA700",
"B.	c #FFB700",
"C.	c #FFC500",
"D.	c #FFD000",
"E.	c #FFD500",
"F.	c #FFC600",
"G.	c #FFA800",
"H.	c #FDCC7B",
"I.	c #FDFFFF",
"J.	c #F7E3BF",
"K.	c #FBD37A",
"L.	c #FCDC7D",
"M.	c #FCE37D",
"N.	c #FDEB7E",
"O.	c #FDF07E",
"P.	c #FDEC7F",
"Q.	c #FEE47F",
"R.	c #FEDD7F",
"S.	c #FED47C",
"T.	c #FDE9C4",
"U.	c #D3D3D4",
"V.	c #FDFEFF",
"W.	c #FCFEFF",
"X.	c #D5D5D6",
"                                        ",
"              . + @ # $ % & *   = -     ",
"            ; > , ' ) ! ~ { ] ^ / ( _   ",
"            $ : < [ } | 1 2 3 3 3 4 5   ",
"            & 6 7 7 7 7 7 7 7 7 8 9 0   ",
"            a b c d e f g f h i c j k   ",
"            l g m n o p q r s d t u v   ",
"    w x y 3 z A B C D A E F G H I J v   ",
"  / K L 4 M ! ( ( N O / P ( Q R S T v   ",
"  U V W X Y Z `  ...+...@.N #.$.8 %.v   ",
"  &.*.=.-.-.;.;.;.;.;.>.,.'.).!.~.{.v   ",
"  ].^./.(.(.(.(.(.(.(./._.:.<.v O [.v   ",
"  }.|.1.2.3.3.3.3.3.2.4.5.6.7.8.9.8.    ",
"  0.a.b.c.d.e.f.e.d.c.b.g.h.            ",
"  i.j.k.l.m.n.o.n.p.l.k.q.v             ",
"  r.s.t.u.v.w.x.w.v.u.t.y.v             ",
"  r.z.A.B.C.D.E.D.F.v.G.H.v             ",
"  I.J.K.L.M.N.O.P.Q.R.S.T.v             ",
"  U.V.W.I.* v v v v v v v X.            ",
"                                        "};
