/* XPM */
static char * workspacebuttonactive_xpm[] = {
"4 25 24 1",
" 	c None",
".	c #2E2E2E",
"+	c #656565",
"@	c #5A5A5A",
"#	c #585858",
"$	c #575757",
"%	c #555555",
"&	c #535353",
"*	c #525252",
"=	c #515151",
"-	c #505050",
";	c #4E4E4E",
">	c #4C4C4C",
",	c #4A4A4A",
"'	c #494949",
")	c #474747",
"!	c #454545",
"~	c #434343",
"{	c #424242",
"]	c #404040",
"^	c #3E3E3E",
"/	c #3C3C3C",
"(	c #3A3A3A",
"_	c #252525",
"....",
"++++",
"@@@@",
"####",
"$$$$",
"%%%%",
"&&&&",
"****",
"====",
"----",
";;;;",
">>>>",
",,,,",
"''''",
"))))",
"!!!!",
"~~~~",
"{{{{",
"{{{{",
"]]]]",
"^^^^",
"////",
"////",
"((((",
"____"};
