/* XPM */
static char * xterm_xpm[] = {
"20 20 180 2",
"  	c None",
". 	c #F3F3F4",
"+ 	c #EDEDED",
"@ 	c #F4F4F4",
"# 	c #F7F7F7",
"$ 	c #FBFBFB",
"% 	c #FEFEFE",
"& 	c #FFFFFF",
"* 	c #E1E1E1",
"= 	c #60615F",
"- 	c #777978",
"; 	c #777877",
"> 	c #787978",
", 	c #797978",
"' 	c #797A79",
") 	c #7A7A79",
"! 	c #7A7B7A",
"~ 	c #7B7B7B",
"{ 	c #797977",
"] 	c #747474",
"^ 	c #727272",
"/ 	c #707070",
"( 	c #595959",
"_ 	c #E8E8E8",
": 	c #E1E0E1",
"< 	c #3C3D39",
"[ 	c #5A5C58",
"} 	c #545651",
"| 	c #50514F",
"1 	c #4D4F4C",
"2 	c #4A4B49",
"3 	c #454644",
"4 	c #424241",
"5 	c #3D3F3D",
"6 	c #3A3C3A",
"7 	c #393939",
"8 	c #353535",
"9 	c #333333",
"0 	c #343434",
"a 	c #141414",
"b 	c #3B3D39",
"c 	c #555653",
"d 	c #525452",
"e 	c #50504E",
"f 	c #4C4D4B",
"g 	c #494948",
"h 	c #454746",
"i 	c #434443",
"j 	c #3C3D3C",
"k 	c #363736",
"l 	c #2F2F2F",
"m 	c #2E2E2E",
"n 	c #303030",
"o 	c #0D0D0D",
"p 	c #E9E9E9",
"q 	c #353834",
"r 	c #4B4C49",
"s 	c #4E4E4C",
"t 	c #4E504D",
"u 	c #4B4C4A",
"v 	c #444543",
"w 	c #3E3D3C",
"x 	c #333332",
"y 	c #2F3030",
"z 	c #2D2D2D",
"A 	c #0C0C0C",
"B 	c #E2E2E2",
"C 	c #313330",
"D 	c #A6A7A4",
"E 	c #E1E2E0",
"F 	c #585958",
"G 	c #414240",
"H 	c #40413F",
"I 	c #3E3D3D",
"J 	c #3A3B3A",
"K 	c #0E0E0E",
"L 	c #E7E7E7",
"M 	c #E3E3E3",
"N 	c #30332F",
"O 	c #696A67",
"P 	c #DFDEDE",
"Q 	c #ACACAB",
"R 	c #3E3F3C",
"S 	c #3D3E3C",
"T 	c #3B3C39",
"U 	c #383938",
"V 	c #363635",
"W 	c #323232",
"X 	c #E6E6E6",
"Y 	c #242621",
"Z 	c #E5E4E4",
"` 	c #444541",
" .	c #535453",
"..	c #535452",
"+.	c #51514F",
"@.	c #343534",
"#.	c #313131",
"$.	c #E5E5E5",
"%.	c #2B2E29",
"&.	c #454643",
"*.	c #828180",
"=.	c #818280",
"-.	c #7D7D7C",
";.	c #333433",
">.	c #343433",
",.	c #E6E5E6",
"'.	c #2E2F2B",
").	c #474846",
"!.	c #424441",
"~.	c #3C3E3B",
"{.	c #373835",
"].	c #353634",
"^.	c #323332",
"/.	c #2F2F2E",
"(.	c #2C2F2A",
"_.	c #4C4D4A",
":.	c #474845",
"<.	c #424341",
"[.	c #3F403E",
"}.	c #3C3D3B",
"|.	c #393938",
"1.	c #353635",
"2.	c #313132",
"3.	c #2B2C29",
"4.	c #3E3F3E",
"5.	c #3B3C3B",
"6.	c #373837",
"7.	c #313130",
"8.	c #2E2E2D",
"9.	c #EDECED",
"0.	c #2C2D2A",
"a.	c #484847",
"b.	c #434342",
"c.	c #0F0F0F",
"d.	c #F0F0F0",
"e.	c #000000",
"f.	c #1B1C1A",
"g.	c #161715",
"h.	c #131312",
"i.	c #0F0E0E",
"j.	c #0A0C0B",
"k.	c #070707",
"l.	c #040404",
"m.	c #010101",
"n.	c #030303",
"o.	c #060606",
"p.	c #F2F1F2",
"q.	c #F3F3F3",
"r.	c #F8F8F8",
"s.	c #FCFCFC",
"t.	c #ECECEC",
"u.	c #DCDCDC",
"v.	c #BCBCBC",
"w.	c #A6A6A6",
"x.	c #ABABAB",
"y.	c #AEAEAE",
"z.	c #B1B1B1",
"A.	c #B4B4B4",
"B.	c #B8B8B8",
"C.	c #B5B5B5",
"D.	c #B2B2B2",
"E.	c #A8A8A8",
"F.	c #A4A4A4",
"G.	c #A1A1A1",
"H.	c #9E9E9E",
"I.	c #B0B0B0",
"J.	c #DBDBDB",
"K.	c #858585",
"L.	c #9A9A9A",
"M.	c #9F9F9F",
"N.	c #A3A3A3",
"O.	c #AAAAAA",
"P.	c #ACACAC",
"Q.	c #AFAFAF",
"R.	c #A7A7A7",
"S.	c #9D9D9D",
"T.	c #979797",
"U.	c #939393",
"V.	c #8F8F8F",
"W.	c #7F7F7F",
"                                        ",
"  . + @ # $ % & & & & & & & & & % # #   ",
"  * = - ; > , ' ) ) ! ~ { ] ^ ^ / ( _   ",
"  : < [ } | 1 2 3 4 5 6 7 8 9 9 0 a _   ",
"  * b [ c d e f g h i j k l l m n o p   ",
"  * q ) r s t u v w k x y z m m l A _   ",
"  B C D E F G H I J k 9 n m m m l K L   ",
"  M N O P Q R S T U V W l m m m l K X   ",
"  M Y Z ` <  ...+.k @.#.z m m m l K $.  ",
"  M %.&.v G *.=.-.;.>.n m m m m l K M   ",
"  ,.'.1 ).!.~.{.].0 ^./.m m m m l K $.  ",
"  L (._.:.<.[.}.|.1.2.z m m m m l K X   ",
"  p 3.r 3 <.4.5.6.0 7.8.m m m m l K L   ",
"  9.0.f a.b.[.}.|.1.#.n n n n n #.c.p   ",
"  d.e.f.g.h.i.j.k.l.e.m.n.n.n.l.o.e._   ",
"  M p.q.r.s.& & & & & & s.r.q.d.t.p u.  ",
"  $.v.w.x.y.z.A.B.C.D.y.x.E.F.G.H.I.J.  ",
"  K.L.M.N.w.O.P.Q.P.R.F.G.S.L.T.U.V.W.  ",
"                                        ",
"                                        "};
